<?xml version="1.0" encoding="UTF-8"?>
<svg xmlns="http://www.w3.org/2000/svg" width="48" height="56" viewBox="0 0 48 56" fill="none">
  <g id="Logotyp">
    <g id="Interactive">
      <path id="Vector" d="M47.8714 34.8625C47.677 33.246 47.251 31.6655 46.6062 30.169C44.9876 26.392 42.1107 23.2842 38.4591 21.368C38.015 21.1347 37.5626 20.9125 37.0962 20.7126C36.7275 20.5543 36.3504 20.4154 35.979 20.2821V0H26.4829V20.2738H17.9644C14.4113 20.2738 10.9381 21.3214 7.9839 23.2842C5.02968 25.2471 2.72714 28.0369 1.36746 31.301C0.00778377 34.565 -0.34797 38.1567 0.345188 41.6218C1.03835 45.0869 2.74928 48.2698 5.26164 50.768C7.774 53.2662 10.9749 54.9675 14.4597 55.6568C17.9444 56.346 21.5565 55.9923 24.839 54.6402C28.1216 53.2882 30.9272 50.9987 32.9012 48.0611C34.8751 45.1235 35.9287 41.6699 35.9287 38.1369V31.0799C36.7378 31.8808 37.3929 32.822 37.8614 33.8572C38.16 34.561 38.3565 35.3035 38.4452 36.0623V54.8669H47.9999V37.1426C48.0025 36.3807 47.9596 35.6194 47.8714 34.8625ZM26.4494 38.1508C26.4488 39.8183 25.951 41.4482 25.019 42.8344C24.0869 44.2206 22.7624 45.3009 21.2129 45.9386C19.6635 46.5764 17.9586 46.7429 16.314 46.4173C14.6693 46.0916 13.1587 45.2884 11.9731 44.1091C10.7875 42.9298 9.98018 41.4274 9.65323 39.7919C9.32627 38.1564 9.49436 36.4612 10.1362 34.9207C10.7781 33.3802 11.8649 32.0635 13.2593 31.1371C14.6537 30.2108 16.293 29.7163 17.9699 29.7163H26.4494V38.1508Z" fill="#FFF673"></path>
      <path id="Vector_2" d="M43.1656 20.2067C45.7648 20.2067 47.8718 18.1115 47.8718 15.527C47.8718 12.9426 45.7648 10.8474 43.1656 10.8474C40.5665 10.8474 38.4595 12.9426 38.4595 15.527C38.4595 18.1115 40.5665 20.2067 43.1656 20.2067Z" fill="#FFF673"></path>
    </g>
  </g>
</svg>
